<svg width="12" height="13" viewBox="0 0 12 13" fill="none" xmlns="http://www.w3.org/2000/svg">
<path d="M5.995 1.5C3.235 1.5 1 3.74 1 6.5C1 9.26 3.235 11.5 5.995 11.5C8.76 11.5 11 9.26 11 6.5C11 3.74 8.76 1.5 5.995 1.5ZM6 10.5C3.79 10.5 2 8.71 2 6.5C2 4.29 3.79 2.5 6 2.5C8.21 2.5 10 4.29 10 6.5C10 8.71 8.21 10.5 6 10.5ZM5.89 4H5.86C5.66 4 5.5 4.16 5.5 4.36V6.72C5.5 6.895 5.59 7.06 5.745 7.15L7.82 8.395C7.99 8.495 8.21 8.445 8.31 8.275C8.415 8.105 8.36 7.88 8.185 7.78L6.25 6.63V4.36C6.25 4.16 6.09 4 5.89 4Z" fill="#5E5E5E"/>
</svg>
