<svg width="12" height="13" viewBox="0 0 12 13" fill="none" xmlns="http://www.w3.org/2000/svg">
<path d="M6 3.75C7.895 3.75 9.585 4.815 10.41 6.5C9.585 8.185 7.9 9.25 6 9.25C4.1 9.25 2.415 8.185 1.59 6.5C2.415 4.815 4.105 3.75 6 3.75ZM6 2.75C3.5 2.75 1.365 4.305 0.5 6.5C1.365 8.695 3.5 10.25 6 10.25C8.5 10.25 10.635 8.695 11.5 6.5C10.635 4.305 8.5 2.75 6 2.75ZM6 5.25C6.69 5.25 7.25 5.81 7.25 6.5C7.25 7.19 6.69 7.75 6 7.75C5.31 7.75 4.75 7.19 4.75 6.5C4.75 5.81 5.31 5.25 6 5.25ZM6 4.25C4.76 4.25 3.75 5.26 3.75 6.5C3.75 7.74 4.76 8.75 6 8.75C7.24 8.75 8.25 7.74 8.25 6.5C8.25 5.26 7.24 4.25 6 4.25Z" fill="#5E5E5E"/>
</svg>
