<svg width="25" height="25" viewBox="0 0 25 25" fill="none" xmlns="http://www.w3.org/2000/svg">
<path d="M9.37501 14.3231C6.93751 14.3231 2.08334 15.5418 2.08334 17.9689V19.7918H16.6667V17.9689C16.6667 15.5418 11.8125 14.3231 9.37501 14.3231ZM4.52084 17.7085C5.39584 17.1043 7.51043 16.4064 9.37501 16.4064C11.2396 16.4064 13.3542 17.1043 14.2292 17.7085H4.52084ZM9.37501 12.5002C11.3854 12.5002 13.0208 10.8647 13.0208 8.85433C13.0208 6.84391 11.3854 5.2085 9.37501 5.2085C7.36459 5.2085 5.72918 6.84391 5.72918 8.85433C5.72918 10.8647 7.36459 12.5002 9.37501 12.5002ZM9.37501 7.29183C10.2396 7.29183 10.9375 7.98975 10.9375 8.85433C10.9375 9.71891 10.2396 10.4168 9.37501 10.4168C8.51043 10.4168 7.81251 9.71891 7.81251 8.85433C7.81251 7.98975 8.51043 7.29183 9.37501 7.29183ZM16.7083 14.3856C17.9167 15.2606 18.75 16.4272 18.75 17.9689V19.7918H22.9167V17.9689C22.9167 15.8647 19.2708 14.6668 16.7083 14.3856ZM15.625 12.5002C17.6354 12.5002 19.2708 10.8647 19.2708 8.85433C19.2708 6.84391 17.6354 5.2085 15.625 5.2085C15.0625 5.2085 14.5417 5.34391 14.0625 5.57308C14.7188 6.50016 15.1042 7.63558 15.1042 8.85433C15.1042 10.0731 14.7188 11.2085 14.0625 12.1356C14.5417 12.3647 15.0625 12.5002 15.625 12.5002Z" fill="black"/>
</svg>
