<svg width="29" height="28" viewBox="0 0 29 28" fill="none" xmlns="http://www.w3.org/2000/svg">
<path d="M19.526 16.8341H18.6058L18.2797 16.5191C19.6774 14.8857 20.3996 12.6574 20.0036 10.2891C19.4561 7.04573 16.7537 4.45573 13.4923 4.05906C8.56509 3.4524 4.41835 7.60573 5.02406 12.5407C5.42009 15.8074 8.00598 18.5141 11.2442 19.0624C13.6087 19.4591 15.8335 18.7357 17.4643 17.3357L17.7788 17.6624V18.5841L22.7292 23.5424C23.2068 24.0207 23.9872 24.0207 24.4648 23.5424C24.9424 23.0641 24.9424 22.2824 24.4648 21.8041L19.526 16.8341ZM12.5371 16.8341C9.63672 16.8341 7.29545 14.4891 7.29545 11.5841C7.29545 8.67906 9.63672 6.33406 12.5371 6.33406C15.4375 6.33406 17.7788 8.67906 17.7788 11.5841C17.7788 14.4891 15.4375 16.8341 12.5371 16.8341Z" fill="#88888C"/>
</svg>
