<svg width="25" height="25" viewBox="0 0 25 25" fill="none" xmlns="http://www.w3.org/2000/svg">
<path d="M15.6667 8.33341C15.6667 10.0832 14.2498 11.5001 12.5 11.5001C10.7502 11.5001 9.33334 10.0832 9.33334 8.33341C9.33334 6.58362 10.7502 5.16675 12.5 5.16675C14.2498 5.16675 15.6667 6.58362 15.6667 8.33341ZM5.16667 18.7501C5.16667 18.4247 5.32175 18.0656 5.75587 17.6649C6.19678 17.258 6.85543 16.8792 7.66224 16.556C9.27746 15.9089 11.2344 15.5834 12.5 15.5834C13.7656 15.5834 15.7225 15.9089 17.3378 16.556C18.1446 16.8792 18.8032 17.258 19.2441 17.6649C19.6783 18.0656 19.8333 18.4247 19.8333 18.7501V19.8334H5.16667V18.7501Z" fill="white" stroke="black" stroke-width="2"/>
</svg>
